<svg width="283.78mm" height="142.38mm" version="1.1" viewBox="0 0 283.78 142.38" xmlns="http://www.w3.org/2000/svg">
 <g transform="translate(67.049 14.582)">
  <g transform="translate(-258.91 -54.754)">
   <path d="m453.17 182.55c-2.3817 0.01-4.7048-0.3072-6.8523-0.99115-18.099-5.7645-15.903-39.266-33.676-45.97-23.218-8.7584-50.895 27.887-72.697 16.036-21.896-11.901-4.3886-57.956-26.192-70.025-21.004-11.626-47.784 22.023-70.559 14.433-23.615-7.8698-59.765-33.159-49.557-55.861h277.09c2.7222 0 4.9139 2.1917 4.9139 4.9139v126.69c-4.706 6.5302-13.963 10.734-22.469 10.769z" style="fill:#5525cb"/>
   <path d="m475.64 149.17c-2.566 8e-3 -5.0688-0.237-7.3825-0.76481-19.5-4.4484-17.134-30.301-36.282-35.475-25.014-6.7588-54.833 21.52-78.322 12.375-23.59-9.1841-4.7284-44.724-28.219-54.038-22.629-8.9718-51.481 16.995-76.018 11.138-25.021-5.9727-63.104-24.947-53.894-42.237h275.2c2.7222 0 4.9139 2.1917 4.9139 4.9139z" style="fill:#4325a7"/>
   <path d="m475.64 138.35c-16.825-6.0075-15.492-29.806-33.778-34.746-25.014-6.7588-54.833 21.52-78.322 12.375-23.59-9.1841-4.7284-44.724-28.219-54.038-22.629-8.9718-51.481 16.994-76.018 11.137-20.557-4.907-49.926-18.59-54.646-32.905h266.07c2.7222 0 4.9139 2.1917 4.9139 4.9139z" style="fill:#31207e"/>
  </g>
 </g>
</svg>
